<?xml version="1.0" encoding="UTF-8"?>
<svg id="_레이어_2" data-name="레이어 2" xmlns="http://www.w3.org/2000/svg" viewBox="0 0 110 30">
  <defs>
    <style>
      .cls-1 {
        stroke: #000;
      }

      .cls-1, .cls-2 {
        fill: none;
        stroke-linecap: round;
        stroke-linejoin: round;
      }

      .cls-3 {
        fill: #ffd966;
        stroke-width: 0px;
      }

      .cls-2 {
        stroke: #231f20;
        stroke-width: .94px;
      }
    </style>
  </defs>
  <g id="Layer_1" data-name="Layer 1">
    <rect class="cls-3" x="0" y="0" width="110" height="30" rx="15" ry="15"/>
    <polyline class="cls-1" points="95.95 12.69 98.21 14.96 95.86 17.31"/>
    <path class="cls-2" d="m27.27,14.1v7.73h-12.85v-7.72m-.91-1.59c0,1.01.82,1.84,1.84,1.84s1.83-.82,1.83-1.84m0,0c0,1.01.82,1.84,1.83,1.84s1.84-.82,1.84-1.84m0,0c0,1.01.82,1.84,1.83,1.84s1.83-.82,1.83-1.84m0,0c0,1.01.82,1.84,1.84,1.84s1.83-.82,1.83-1.84m-14.68,0h14.68l-1.95-3.44h0v-1.77c0-.46-.37-.84-.84-.84h-9.1c-.46,0-.84.37-.84.84v1.77l-1.95,3.44Zm4.15-3.44h6.38m4.15,13.6h0c0-.47-.38-.84-.84-.84h-12.99c-.47,0-.85.38-.85.84s.38.84.85.84h12.99c.47,0,.84-.38.84-.84Zm-3.67-.84v-4.55c0-.37-.3-.67-.67-.67h-1.61c-.37,0-.67.3-.67.67v4.55m-2.71-4.89h-2.52v2.23h2.52v-2.23Z"/>
  </g>
</svg>