<?xml version="1.0" encoding="UTF-8"?>
<svg id="_레이어_2" data-name="레이어 2" xmlns="http://www.w3.org/2000/svg" viewBox="0 0 110 30">
  <defs>
    <style>
      .cls-1 {
        fill: none;
        stroke: #000;
        stroke-linecap: round;
        stroke-linejoin: round;
      }

      .cls-2 {
        fill: #231f20;
      }

      .cls-2, .cls-3 {
        stroke-width: 0px;
      }

      .cls-3 {
        fill: #ffb27d;
      }
    </style>
  </defs>
  <g id="Layer_1" data-name="Layer 1">
    <g>
      <rect class="cls-3" y="0" width="110" height="30" rx="15" ry="15"/>
      <g>
        <path class="cls-2" d="m28.25,6.58h-13.23c-1.66,0-3.01,1.35-3.01,3.01v10.82c0,1.66,1.35,3.01,3.01,3.01h13.23c1.66,0,3.01-1.35,3.01-3.01v-10.82c0-1.66-1.35-3.01-3.01-3.01Zm-4.81,1.2v5.04l-1.54-.77c-.08-.04-.18-.06-.27-.06s-.18.02-.27.06l-1.54.77v-5.04h3.61Zm6.61,12.63c0,.99-.81,1.8-1.8,1.8h-13.23c-.99,0-1.8-.81-1.8-1.8v-10.82c0-.99.81-1.8,1.8-1.8h3.61v6.01c0,.21.11.4.29.51.18.11.4.12.58.03l2.14-1.07,2.14,1.07c.19.1.41.08.58-.03.18-.11.29-.3.29-.51v-6.01h3.61c.99,0,1.8.81,1.8,1.8v10.82Z"/>
        <path class="cls-2" d="m19.23,19.81h-4.21c-.33,0-.6.27-.6.6s.27.6.6.6h4.21c.33,0,.6-.27.6-.6s-.27-.6-.6-.6Z"/>
        <path class="cls-2" d="m21.64,18.01h-6.61c-.33,0-.6.27-.6.6s.27.6.6.6h6.61c.33,0,.6-.27.6-.6s-.27-.6-.6-.6Z"/>
        <path class="cls-2" d="m28.25,18.01h-2.41c-.33,0-.6.27-.6.6v1.8c0,.33.27.6.6.6h2.41c.33,0,.6-.27.6-.6v-1.8c0-.33-.27-.6-.6-.6Zm-.6,1.8h-1.2v-.6h1.2v.6Z"/>
      </g>
      <polyline class="cls-1" points="95.94 12.69 98.21 14.96 95.85 17.31"/>
    </g>
  </g>
</svg>